<?xml version="1.0" standalone="no"?>

<!DOCTYPE svg PUBLIC "-//W3C//DTD SVG 1.1//EN" 
"http://www.w3.org/Graphics/SVG/1.1/DTD/svg11.dtd">
<!-- 声明文档格式 -->
<!-- svg默认大小 300 * 150 -->
<svg width="200" height="200" version="1.1"
xmlns="http://www.w3.org/2000/svg">
    <svg id="haha">
                                        <path d="M100,0C44.9,0,0,44.9,0,100c0,55.1,44.9,100,100,100c55.1,0,100-44.9,100-100C200,44.9,155.1,0,100,0z
                                        M171.9,131.9c-11.7,27.5-37.6,49.6-66.8,60.9c0,0-0.1,0-0.1,0c-0.4,0-0.7-0.3-0.7-0.7c0-0.1,0-0.3,0.1-0.4
                                       c4.1-4.9,4.9-13.3-4.3-13.2c-1.7,0-3.4,0-5.1-0.2c-43.3-2.8-76.3-40.1-73.5-83.5c2.8-43.3,40.1-76.3,83.5-73.5
                                       c43.3,2.8,76.3,40.1,73.5,83.5C177.9,114.6,175.6,123.6,171.9,131.9z" fill='#fff' stroke='#d3a24e' stroke-width='1'></path>
                                    </svg>
</svg>